<svg xmlns="http://www.w3.org/2000/svg" width="36" height="36"><path fill="#34485c" d="M5.498 8h24.004c.276 0 .498.222.498.496v16.008a.496.496 0 0 1-.498.496H5.498A.496.496 0 0 1 5 24.504V8.496C5 8.222 5.222 8 5.498 8z"/><path fill="#cad1d8" fill-rule="evenodd" d="M15 24.777h5V28h-5z"/><path fill="#2b4255" d="M12.2 28a.2.2 0 0 0-.2.2V29.002H23V28.2a.2.2 0 0 0-.2-.2H12.2z"/><path fill="#00cdff" d="M6 9h23v12H6z"/><path fill="#2b4255" d="M5 21.978v2.524c0 .276.222.498.498.498h24.004a.497.497 0 0 0 .498-.498v-2.48l-24.7-.044z"/><path fill="none" d="M4 11h26"/><path fill="#f8b84e" style="isolation:auto;mix-blend-mode:normal" d="M14.248 1027.362H28l2 3v1.247-.288.542c0 .83-.669 1.5-1.5 1.5-.83 0-1.5-.67-1.5-1.5 0 .83-.669 1.5-1.5 1.5-.83 0-1.5-.67-1.5-1.5 0 .83-.669 1.5-1.5 1.5-.83 0-1.5-.67-1.5-1.5 0 .83-.669 1.5-1.5 1.5-.83 0-1.5-.67-1.5-1.5 0 .83-.669 1.5-1.5 1.5-.83 0-1.5-.67-1.5-1.5 0 .83-.669 1.5-1.5 1.5-.83 0-1.5-.67-1.5-1.5 0 .83-.669 1.5-1.5 1.5-.83 0-1.5-.67-1.5-1.5 0 .83-.669 1.5-1.5 1.5-.83 0-1.5-.67-1.5-1.5 0 .83-.669 1.5-1.5 1.5-.83 0-1.5-.67-1.5-1.5v-.49.236-1.247l2-3h10.438" color="#000" overflow="visible" transform="translate(1 -1018.362)"/><path fill="#fcd062" d="M30 1030.362v1.247-.288.542c0 .83-.669 1.5-1.5 1.5-.83 0-1.5-.67-1.5-1.5 0 .83-.669 1.5-1.5 1.5-.83 0-1.5-.67-1.5-1.5 0 .83-.669 1.5-1.5 1.5-.83 0-1.5-.67-1.5-1.5 0 .83-.669 1.5-1.5 1.5-.83 0-1.5-.67-1.5-1.5 0 .83-.669 1.5-1.5 1.5-.83 0-1.5-.67-1.5-1.5 0 .83-.669 1.5-1.5 1.5-.83 0-1.5-.67-1.5-1.5 0 .83-.669 1.5-1.5 1.5-.83 0-1.5-.67-1.5-1.5 0 .83-.669 1.5-1.5 1.5-.83 0-1.5-.67-1.5-1.5 0 .83-.669 1.5-1.5 1.5-.83 0-1.5-.67-1.5-1.5v-.49.236-1.247" color="#000" overflow="visible" style="isolation:auto;mix-blend-mode:normal" transform="translate(1 -1018.362)"/><path fill="#e9eded" style="line-height:normal;text-indent:0;text-align:start;text-decoration-line:none;text-decoration-style:solid;text-decoration-color:#000;text-transform:none;block-progression:tb;isolation:auto;mix-blend-mode:normal" d="M4.498 9C3.688 9 3 9.682 3 10.496v1.701l-.832 1.248A1 1 0 0 0 2 14v1.5c0 .78.434 1.393 1 1.852v9.15a1.493 1.493 0 0 0 .914 1.375h.02c.108.044.233.054.355.072.071.011.134.041.209.041H13v1h-1.8c-.659 0-1.2.556-1.2 1.201v.8a1 1 0 0 0 1 1H22a1 1 0 0 0 1-1v-.8c0-.643-.544-1.2-1.2-1.2H20v-1h8.502c.35 0 .645-.137.832-.262-.077.052.032.017.223-.17h.002c.134-.134.247-.296.324-.477.077-.18.117-.376.117-.58v-9.15c.566-.46 1-1.073 1-1.852V14a1 1 0 0 0-.168-.555L30 12.197v-1.7C30 9.681 29.313 9 28.502 9H4.498Zm0 1h24.004c.276 0 .498.221.498.496V12.5l1 1.5v1.5c0 .655-.417 1.205-1 1.41V26.502a.505.505 0 0 1-.146.353c-.023.023-.052.035-.079.053a.487.487 0 0 1-.273.092H19v3h2.8c.112 0 .2.09.2.201V31H11V30.201a.2.2 0 0 1 .2-.201H14v-3H4.498a.504.504 0 0 1-.193-.04h-.002A.493.493 0 0 1 4 26.505v-9.596c-.582-.206-1-.754-1-1.408V14l1-1.5v-2.004c0-.275.222-.496.498-.496Z" color="#000" font-family="sans-serif" font-weight="400" overflow="visible" transform="translate(1 -2)"/></svg>